<mxfile host="app.diagrams.net" modified="2023-11-20T20:43:14.460Z" agent="Mozilla/5.0 (Windows NT 10.0; Win64; x64) AppleWebKit/537.36 (KHTML, like Gecko) Chrome/119.0.0.0 Safari/537.36" etag="WzKgcbtip9SM0v3OaqSH" version="22.1.3" type="device">
  <diagram name="Page-1" id="jKIh2TqsxGCDJeCQCvyG">
    <mxGraphModel dx="1050" dy="626" grid="1" gridSize="10" guides="1" tooltips="1" connect="1" arrows="1" fold="1" page="1" pageScale="1" pageWidth="850" pageHeight="1100" math="0" shadow="0">
      <root>
        <mxCell id="0" />
        <mxCell id="1" parent="0" />
        <mxCell id="g5hKMaxpHNG5f8gVzMrG-29" value="" style="rounded=0;whiteSpace=wrap;html=1;" parent="1" vertex="1">
          <mxGeometry x="120" y="40" width="350" height="560" as="geometry" />
        </mxCell>
        <mxCell id="g5hKMaxpHNG5f8gVzMrG-30" style="edgeStyle=orthogonalEdgeStyle;rounded=0;orthogonalLoop=1;jettySize=auto;html=1;exitX=0.5;exitY=0.5;exitDx=0;exitDy=0;exitPerimeter=0;entryX=0;entryY=0.5;entryDx=0;entryDy=0;" parent="1" source="g5hKMaxpHNG5f8gVzMrG-33" target="g5hKMaxpHNG5f8gVzMrG-38" edge="1">
          <mxGeometry relative="1" as="geometry" />
        </mxCell>
        <mxCell id="g5hKMaxpHNG5f8gVzMrG-31" style="edgeStyle=orthogonalEdgeStyle;rounded=0;orthogonalLoop=1;jettySize=auto;html=1;exitX=0.5;exitY=0.5;exitDx=0;exitDy=0;exitPerimeter=0;entryX=0;entryY=0.5;entryDx=0;entryDy=0;" parent="1" source="g5hKMaxpHNG5f8gVzMrG-33" target="g5hKMaxpHNG5f8gVzMrG-56" edge="1">
          <mxGeometry relative="1" as="geometry">
            <Array as="points">
              <mxPoint x="90" y="105" />
              <mxPoint x="90" y="465" />
            </Array>
          </mxGeometry>
        </mxCell>
        <mxCell id="g5hKMaxpHNG5f8gVzMrG-32" style="edgeStyle=orthogonalEdgeStyle;rounded=0;orthogonalLoop=1;jettySize=auto;html=1;exitX=0.5;exitY=0.5;exitDx=0;exitDy=0;exitPerimeter=0;entryX=0;entryY=0.5;entryDx=0;entryDy=0;" parent="1" source="g5hKMaxpHNG5f8gVzMrG-33" target="g5hKMaxpHNG5f8gVzMrG-50" edge="1">
          <mxGeometry relative="1" as="geometry">
            <Array as="points">
              <mxPoint x="90" y="105" />
              <mxPoint x="90" y="555" />
            </Array>
          </mxGeometry>
        </mxCell>
        <mxCell id="g5hKMaxpHNG5f8gVzMrG-33" value="User" style="shape=umlActor;verticalLabelPosition=bottom;verticalAlign=top;html=1;outlineConnect=0;" parent="1" vertex="1">
          <mxGeometry x="40" y="75.25" width="30" height="60" as="geometry" />
        </mxCell>
        <mxCell id="g5hKMaxpHNG5f8gVzMrG-34" value="System&lt;br&gt;" style="text;html=1;align=center;verticalAlign=middle;resizable=0;points=[];autosize=1;strokeColor=none;fillColor=none;" parent="1" vertex="1">
          <mxGeometry x="265" y="40" width="60" height="30" as="geometry" />
        </mxCell>
        <mxCell id="g5hKMaxpHNG5f8gVzMrG-35" style="edgeStyle=orthogonalEdgeStyle;rounded=0;orthogonalLoop=1;jettySize=auto;html=1;exitX=0.5;exitY=1;exitDx=0;exitDy=0;entryX=0.5;entryY=0;entryDx=0;entryDy=0;dashed=1;" parent="1" source="g5hKMaxpHNG5f8gVzMrG-38" target="g5hKMaxpHNG5f8gVzMrG-39" edge="1">
          <mxGeometry relative="1" as="geometry" />
        </mxCell>
        <mxCell id="g5hKMaxpHNG5f8gVzMrG-36" value="&amp;lt;&amp;lt;Extend&amp;gt;&amp;gt;" style="edgeLabel;html=1;align=center;verticalAlign=middle;resizable=0;points=[];" parent="g5hKMaxpHNG5f8gVzMrG-35" vertex="1" connectable="0">
          <mxGeometry x="-0.0368" y="1" relative="1" as="geometry">
            <mxPoint x="-2" y="-1" as="offset" />
          </mxGeometry>
        </mxCell>
        <mxCell id="g5hKMaxpHNG5f8gVzMrG-37" style="edgeStyle=orthogonalEdgeStyle;rounded=0;orthogonalLoop=1;jettySize=auto;html=1;exitX=0.5;exitY=0.5;exitDx=0;exitDy=0;entryX=0;entryY=0.5;entryDx=0;entryDy=0;exitPerimeter=0;" parent="1" source="g5hKMaxpHNG5f8gVzMrG-33" target="g5hKMaxpHNG5f8gVzMrG-44" edge="1">
          <mxGeometry relative="1" as="geometry">
            <Array as="points">
              <mxPoint x="90" y="105" />
              <mxPoint x="90" y="285" />
            </Array>
          </mxGeometry>
        </mxCell>
        <mxCell id="g5hKMaxpHNG5f8gVzMrG-38" value="Open Application" style="ellipse;whiteSpace=wrap;html=1;" parent="1" vertex="1">
          <mxGeometry x="150" y="80" width="100" height="50" as="geometry" />
        </mxCell>
        <mxCell id="g5hKMaxpHNG5f8gVzMrG-39" value="Display Cached Parameters" style="ellipse;whiteSpace=wrap;html=1;" parent="1" vertex="1">
          <mxGeometry x="150" y="170" width="100" height="50" as="geometry" />
        </mxCell>
        <mxCell id="g5hKMaxpHNG5f8gVzMrG-40" style="edgeStyle=orthogonalEdgeStyle;rounded=0;orthogonalLoop=1;jettySize=auto;html=1;exitX=1;exitY=0.5;exitDx=0;exitDy=0;entryX=0;entryY=0.5;entryDx=0;entryDy=0;dashed=1;" parent="1" source="g5hKMaxpHNG5f8gVzMrG-44" target="g5hKMaxpHNG5f8gVzMrG-52" edge="1">
          <mxGeometry relative="1" as="geometry">
            <mxPoint x="120" y="285.25" as="sourcePoint" />
          </mxGeometry>
        </mxCell>
        <mxCell id="g5hKMaxpHNG5f8gVzMrG-41" value="&amp;lt;&amp;lt;Includes&amp;gt;&amp;gt;" style="edgeLabel;html=1;align=center;verticalAlign=middle;resizable=0;points=[];" parent="g5hKMaxpHNG5f8gVzMrG-40" vertex="1" connectable="0">
          <mxGeometry x="0.208" relative="1" as="geometry">
            <mxPoint x="-7" y="-10" as="offset" />
          </mxGeometry>
        </mxCell>
        <mxCell id="g5hKMaxpHNG5f8gVzMrG-42" style="edgeStyle=orthogonalEdgeStyle;rounded=0;orthogonalLoop=1;jettySize=auto;html=1;exitX=0.5;exitY=1;exitDx=0;exitDy=0;entryX=0.5;entryY=0;entryDx=0;entryDy=0;dashed=1;" parent="1" source="g5hKMaxpHNG5f8gVzMrG-44" target="g5hKMaxpHNG5f8gVzMrG-53" edge="1">
          <mxGeometry relative="1" as="geometry" />
        </mxCell>
        <mxCell id="g5hKMaxpHNG5f8gVzMrG-43" value="&amp;lt;&amp;lt;Includes&amp;gt;&amp;gt;" style="edgeLabel;html=1;align=center;verticalAlign=middle;resizable=0;points=[];" parent="g5hKMaxpHNG5f8gVzMrG-42" vertex="1" connectable="0">
          <mxGeometry x="-0.19" y="-2" relative="1" as="geometry">
            <mxPoint as="offset" />
          </mxGeometry>
        </mxCell>
        <mxCell id="g5hKMaxpHNG5f8gVzMrG-44" value="Input Parameters" style="ellipse;whiteSpace=wrap;html=1;" parent="1" vertex="1">
          <mxGeometry x="150" y="260" width="100" height="50" as="geometry" />
        </mxCell>
        <mxCell id="g5hKMaxpHNG5f8gVzMrG-45" style="edgeStyle=orthogonalEdgeStyle;rounded=0;orthogonalLoop=1;jettySize=auto;html=1;exitX=0.5;exitY=1;exitDx=0;exitDy=0;entryX=1;entryY=0.5;entryDx=0;entryDy=0;dashed=1;" parent="1" source="g5hKMaxpHNG5f8gVzMrG-49" target="g5hKMaxpHNG5f8gVzMrG-50" edge="1">
          <mxGeometry relative="1" as="geometry" />
        </mxCell>
        <mxCell id="g5hKMaxpHNG5f8gVzMrG-46" value="&amp;lt;&amp;lt;Extends&amp;gt;&amp;gt;" style="edgeLabel;html=1;align=center;verticalAlign=middle;resizable=0;points=[];" parent="g5hKMaxpHNG5f8gVzMrG-45" vertex="1" connectable="0">
          <mxGeometry x="-0.1182" y="1" relative="1" as="geometry">
            <mxPoint x="-1" y="-109" as="offset" />
          </mxGeometry>
        </mxCell>
        <mxCell id="g5hKMaxpHNG5f8gVzMrG-47" style="edgeStyle=orthogonalEdgeStyle;rounded=0;orthogonalLoop=1;jettySize=auto;html=1;exitX=0;exitY=0.5;exitDx=0;exitDy=0;entryX=1;entryY=0.5;entryDx=0;entryDy=0;dashed=1;" parent="1" source="g5hKMaxpHNG5f8gVzMrG-49" target="g5hKMaxpHNG5f8gVzMrG-56" edge="1">
          <mxGeometry relative="1" as="geometry" />
        </mxCell>
        <mxCell id="g5hKMaxpHNG5f8gVzMrG-48" value="&amp;lt;&amp;lt;Extends&amp;gt;&amp;gt;" style="edgeLabel;html=1;align=center;verticalAlign=middle;resizable=0;points=[];" parent="g5hKMaxpHNG5f8gVzMrG-47" vertex="1" connectable="0">
          <mxGeometry x="0.1247" y="4" relative="1" as="geometry">
            <mxPoint x="-4" y="-10" as="offset" />
          </mxGeometry>
        </mxCell>
        <mxCell id="g5hKMaxpHNG5f8gVzMrG-49" value="Display Filtered Locations" style="ellipse;whiteSpace=wrap;html=1;" parent="1" vertex="1">
          <mxGeometry x="340" y="350" width="100" height="49.5" as="geometry" />
        </mxCell>
        <mxCell id="g5hKMaxpHNG5f8gVzMrG-50" value="Export to KML" style="ellipse;whiteSpace=wrap;html=1;" parent="1" vertex="1">
          <mxGeometry x="150" y="530" width="100" height="50" as="geometry" />
        </mxCell>
        <mxCell id="g5hKMaxpHNG5f8gVzMrG-51" style="edgeStyle=orthogonalEdgeStyle;rounded=0;orthogonalLoop=1;jettySize=auto;html=1;exitX=0.5;exitY=1;exitDx=0;exitDy=0;entryX=0.5;entryY=0;entryDx=0;entryDy=0;" parent="1" source="g5hKMaxpHNG5f8gVzMrG-52" target="g5hKMaxpHNG5f8gVzMrG-49" edge="1">
          <mxGeometry relative="1" as="geometry">
            <mxPoint x="495" y="350" as="targetPoint" />
          </mxGeometry>
        </mxCell>
        <mxCell id="g5hKMaxpHNG5f8gVzMrG-52" value="Accept Parameters" style="ellipse;whiteSpace=wrap;html=1;" parent="1" vertex="1">
          <mxGeometry x="340" y="260" width="100" height="49.5" as="geometry" />
        </mxCell>
        <mxCell id="g5hKMaxpHNG5f8gVzMrG-53" value="Reject Parameters" style="ellipse;whiteSpace=wrap;html=1;" parent="1" vertex="1">
          <mxGeometry x="150" y="349.5" width="100" height="50" as="geometry" />
        </mxCell>
        <mxCell id="g5hKMaxpHNG5f8gVzMrG-56" value="Review Filtered Locations by Condition" style="ellipse;whiteSpace=wrap;html=1;" parent="1" vertex="1">
          <mxGeometry x="140" y="434.75" width="120" height="60" as="geometry" />
        </mxCell>
      </root>
    </mxGraphModel>
  </diagram>
</mxfile>
